<svg xmlns="http://www.w3.org/2000/svg" viewBox="0 0 1000 700" role="img" aria-labelledby="title desc">
  <title id="title">Critical thinking artifact placeholder for VA VITAE</title>
  <desc id="desc">Generic visual of a research map, decision tree, and evidence-based planning.</desc>
  <rect width="1000" height="700" fill="#eef5f2"/>
  <path d="M0 610 C210 540 385 660 570 590 S815 480 1000 565 V700 H0Z" fill="#0f766e" opacity="0.18"/>
  <rect x="105" y="115" width="790" height="470" rx="36" fill="#ffffff"/>
  <path d="M230 350 h165 M605 238 h150 M605 462 h150 M395 350 C500 350 500 238 605 238 M395 350 C500 350 500 462 605 462" stroke="#0b3d35" stroke-width="16" stroke-linecap="round" fill="none"/>
  <circle cx="230" cy="350" r="58" fill="#d6a23a"/>
  <circle cx="395" cy="350" r="46" fill="#0f766e"/>
  <circle cx="605" cy="238" r="46" fill="#083c35"/>
  <circle cx="605" cy="462" r="46" fill="#083c35"/>
  <rect x="690" y="205" width="120" height="18" rx="9" fill="#0b3d35" opacity="0.7"/>
  <rect x="690" y="250" width="90" height="18" rx="9" fill="#0b3d35" opacity="0.35"/>
  <rect x="690" y="429" width="130" height="18" rx="9" fill="#0b3d35" opacity="0.7"/>
  <rect x="690" y="474" width="95" height="18" rx="9" fill="#0b3d35" opacity="0.35"/>
  <text x="105" y="650" fill="#082f2a" font-family="Arial, sans-serif" font-size="34" font-weight="700">Critical Thinking Artifact</text>
</svg>