<svg xmlns="http://www.w3.org/2000/svg" viewBox="0 0 1600 1000" role="img" aria-labelledby="title desc">
  <title id="title">Generic hero visual for Gabriel Olinger portfolio</title>
  <desc id="desc">A composed digital workbench with degree notes, contracting documents, and an extended reality headset.</desc>
  <defs>
    <linearGradient id="bg" x1="0" x2="1" y1="0" y2="1">
      <stop offset="0" stop-color="#021f18"/>
      <stop offset="0.5" stop-color="#083c35"/>
      <stop offset="1" stop-color="#0f172a"/>
    </linearGradient>
    <linearGradient id="gold" x1="0" x2="1" y1="0" y2="1">
      <stop offset="0" stop-color="#ffe08a"/>
      <stop offset="1" stop-color="#b78628"/>
    </linearGradient>
    <filter id="shadow" x="-20%" y="-20%" width="140%" height="140%">
      <feDropShadow dx="0" dy="24" stdDeviation="24" flood-color="#000000" flood-opacity="0.35"/>
    </filter>
  </defs>
  <rect width="1600" height="1000" fill="url(#bg)"/>
  <circle cx="1220" cy="210" r="330" fill="#1d806e" opacity="0.24"/>
  <circle cx="220" cy="820" r="380" fill="#d6a23a" opacity="0.16"/>
  <g opacity="0.22" stroke="#f8e7b1" stroke-width="2" fill="none">
    <path d="M110 220 C360 130 500 300 740 200 S1120 110 1450 260"/>
    <path d="M120 640 C410 550 600 710 820 610 S1240 520 1500 710"/>
    <path d="M1050 120 L1290 300 L1470 210"/>
    <path d="M900 760 L1110 620 L1420 760"/>
  </g>
  <g filter="url(#shadow)">
    <rect x="895" y="210" width="420" height="260" rx="34" fill="#f7f0df" opacity="0.98"/>
    <rect x="930" y="250" width="210" height="18" rx="9" fill="#083c35"/>
    <rect x="930" y="300" width="310" height="14" rx="7" fill="#234b44" opacity="0.65"/>
    <rect x="930" y="335" width="270" height="14" rx="7" fill="#234b44" opacity="0.5"/>
    <rect x="930" y="380" width="145" height="48" rx="24" fill="url(#gold)"/>
    <path d="M1160 255 h96 v144 h-96 z" fill="#0b352f" opacity="0.88"/>
    <path d="M1176 295 h64 M1176 325 h64 M1176 355 h40" stroke="#f8e7b1" stroke-width="10" stroke-linecap="round"/>
  </g>
  <g filter="url(#shadow)">
    <path d="M610 555 C640 490 730 455 850 468 C980 482 1070 548 1088 634 C1103 706 1036 767 926 774 C800 782 653 736 615 657 C600 625 597 585 610 555Z" fill="#111827"/>
    <path d="M686 573 C720 533 802 518 894 531 C980 543 1034 582 1044 629 C1054 680 998 721 905 728 C795 736 694 701 670 645 C660 622 666 596 686 573Z" fill="#e5f4ef"/>
    <path d="M730 626 C792 600 903 608 991 650" stroke="#0f766e" stroke-width="16" stroke-linecap="round" opacity="0.55"/>
    <circle cx="736" cy="635" r="16" fill="#d6a23a"/>
    <circle cx="982" cy="650" r="16" fill="#d6a23a"/>
  </g>
  <g filter="url(#shadow)">
    <rect x="260" y="255" width="440" height="320" rx="30" fill="#082f2a"/>
    <rect x="298" y="302" width="160" height="20" rx="10" fill="#d6a23a"/>
    <rect x="298" y="356" width="320" height="16" rx="8" fill="#f7f0df" opacity="0.72"/>
    <rect x="298" y="395" width="280" height="16" rx="8" fill="#f7f0df" opacity="0.48"/>
    <rect x="298" y="456" width="100" height="64" rx="16" fill="#f7f0df" opacity="0.9"/>
    <rect x="430" y="456" width="100" height="64" rx="16" fill="#f7f0df" opacity="0.78"/>
    <rect x="562" y="456" width="100" height="64" rx="16" fill="#f7f0df" opacity="0.62"/>
  </g>
  <g opacity="0.5" fill="#f8e7b1">
    <circle cx="360" cy="182" r="5"/>
    <circle cx="510" cy="170" r="3"/>
    <circle cx="1280" cy="585" r="5"/>
    <circle cx="1408" cy="516" r="3"/>
    <circle cx="1100" cy="850" r="4"/>
  </g>
</svg>