<?xml version="1.0" encoding="UTF-8"?>
<svg version="1.1" xmlns="http://www.w3.org/2000/svg" width="1024" height="1024">
<path d="M0 0 C337.92 0 675.84 0 1024 0 C1024 337.92 1024 675.84 1024 1024 C686.08 1024 348.16 1024 0 1024 C0 686.08 0 348.16 0 0 Z " fill="#0F245A" transform="translate(0,0)"/>
<path d="M0 0 C1.15838379 0.54889893 2.31676758 1.09779785 3.51025391 1.66333008 C10.97633066 5.20071024 18.44263665 8.73758915 25.91226196 12.26747131 C42.53376466 20.1222797 59.13598172 28.01087055 75.67626953 36.03540039 C83.4955942 39.81864577 91.35830793 43.49550938 99.25 47.125 C111.99808124 52.99212945 124.59878498 59.14524032 137.19854736 65.32315063 C147.62499187 70.43325083 158.06604209 75.48086118 168.625 80.3125 C183.44864679 87.10284038 198.06277251 94.31951162 212.69189453 101.5168457 C224.30915862 107.2303528 235.95894783 112.86845818 247.64428711 118.44140625 C254.38101895 121.65564098 261.09623938 124.91348728 267.80731201 128.18087769 C269.98135525 129.23927743 272.15590264 130.29663563 274.33056641 131.35375977 C277.37543737 132.83391725 280.4201957 134.31430592 283.46484375 135.79492188 C290.06650906 139.00502947 296.66933106 142.21274661 303.27365112 145.41738892 C305.35677784 146.42865395 307.43927396 147.4412091 309.52172852 148.45385742 C315.43195179 151.32479173 321.34738051 154.17730045 327.30859375 156.94140625 C350.40851126 167.6560812 366.06656919 180.94582419 379.43701172 202.78466797 C382.71747733 208.11472839 386.25367284 213.18190603 389.96484375 218.22094727 C393.22549111 222.67343634 396.35833984 227.21315531 399.5 231.75 C400.903624 233.77215057 402.30727049 235.79428554 403.7109375 237.81640625 C404.77586426 239.35192139 404.77586426 239.35192139 405.86230469 240.91845703 C409.27931964 245.84417228 412.70177793 250.76609721 416.125 255.6875 C417.11741699 257.11425049 417.11741699 257.11425049 418.12988281 258.56982422 C426.94566549 271.238992 435.79413387 283.88516092 444.6875 296.5 C445.18088867 297.20044434 445.67427734 297.90088867 446.18261719 298.62255859 C446.6418457 299.27305176 447.10107422 299.92354492 447.57421875 300.59375 C447.99622559 301.191875 448.41823242 301.79 448.85302734 302.40625 C449.81439385 303.74209516 450.81845942 305.04706963 451.83203125 306.34375 C453 308 453 308 453 310 C453.66 310 454.32 310 455 310 C455.40412109 309.11441406 455.40412109 309.11441406 455.81640625 308.2109375 C456.99389512 306.01140384 458.25211662 304.45190412 459.9375 302.625 C463.77296723 298.24695448 466.28720794 293.84489491 467 288 C467.144375 286.948125 467.28875 285.89625 467.4375 284.8125 C466.52900023 276.89557345 460.63992278 270.27754258 456 264 C460.00936753 259.9369698 464.13645195 256.01604364 468.3125 252.125 C468.98112061 251.50149658 469.64974121 250.87799316 470.33862305 250.2355957 C474.20874027 246.63690031 478.10843149 243.08558069 482.11328125 239.63671875 C484.43658787 237.62126228 486.71748465 235.56151538 489 233.5 C492.62023723 230.23295665 496.26983565 227.00479224 499.94921875 223.8046875 C502.26088797 221.77041859 504.5353143 219.6977769 506.8125 217.625 C510.23229328 214.53363199 513.71958524 211.57540968 517.3125 208.6875 C521.53396375 205.27579516 525.54094067 201.70702372 529.5 198 C534.30918057 193.49697416 539.25502636 189.25847891 544.40234375 185.140625 C546.95325308 183.03852227 549.34496861 180.82885578 551.75 178.5625 C563.4518139 168.0417698 576.91902123 161.30011815 590.984375 154.46875 C596.39026661 151.83034861 601.71637788 149.06289033 607.03125 146.24609375 C616.32676901 141.32347866 625.70192717 136.5725254 635.11425781 131.87768555 C637.73652746 130.56922254 640.35663565 129.25650589 642.9765625 127.94335938 C651.86552122 123.49732709 660.78657295 119.13226918 669.765625 114.87109375 C679.19270033 110.39099837 688.54386353 105.76929193 697.875 101.09375 C698.91594189 100.57220746 698.91594189 100.57220746 699.9779129 100.04012871 C704.98671354 97.5296152 709.99355717 95.01521137 715 92.5 C720.70703138 89.63281651 726.41486423 86.76724685 732.125 83.90625 C732.81518219 83.56039856 733.50536438 83.21454712 734.21646118 82.85821533 C743.88437824 78.01735023 753.59393486 73.27619011 763.36206055 68.64001465 C770.6550771 65.177744 777.88511187 61.60285229 785.09109497 57.96347046 C795.58387613 52.66751046 806.10991533 47.45681124 816.73120117 42.42260742 C822.80283673 39.54025203 828.85276256 36.6163284 834.890625 33.6640625 C836.08847878 33.07837242 836.08847878 33.07837242 837.31053162 32.48085022 C838.96898357 31.66984014 840.62742559 30.85880973 842.28585815 30.04776001 C856.14683623 23.27121115 870.03778437 16.5656994 884 10 C884.71628571 9.66279938 885.43257141 9.32559875 886.17056274 8.97817993 C892.7408511 5.88768522 899.31425579 2.83380529 906 0 C904.61459034 3.74559625 902.89568041 7.0079319 900.796875 10.40234375 C900.15355225 11.44600098 899.51022949 12.4896582 898.84741211 13.56494141 C898.15526611 14.67788574 897.46312012 15.79083008 896.75 16.9375 C896.02529846 18.10845381 895.30077282 19.2795165 894.57641602 20.45068359 C889.52286914 28.60799193 884.39510363 36.71713036 879.22607422 44.80175781 C874.89956065 51.57059872 870.6274389 58.37191018 866.375 65.1875 C865.74891846 66.18813477 865.12283691 67.18876953 864.4777832 68.21972656 C861.53200099 72.92959083 858.59993725 77.64656013 855.703125 82.38671875 C850.43990957 90.95177949 845.25765819 98.95007442 838 106 C837.26910156 106.75152344 836.53820312 107.50304687 835.78515625 108.27734375 C831.2466753 112.69499991 826.41736691 116.13744192 820.89453125 119.2109375 C820.20232483 119.59749008 819.51011841 119.98404266 818.79693604 120.38230896 C810.17957813 125.10720719 801.22493598 129.07459143 792.25 133.0625 C790.39735001 133.89237431 788.54497863 134.72287085 786.69287109 135.55395508 C782.01800936 137.64921934 777.33907867 139.73519617 772.6583252 141.81726074 C770.14754908 142.93435262 767.63756213 144.0531931 765.12792969 145.17285156 C754.03080124 150.12315468 742.92266931 155.04847526 731.81225586 159.96887207 C726.66570742 162.24828739 721.51982929 164.52920685 716.375 166.8125 C715.6439505 167.13694092 714.912901 167.46138184 714.15969849 167.7956543 C698.91589843 174.56481942 683.72216367 181.4436052 668.52958679 188.32676697 C659.17220967 192.56608553 649.81036249 196.79502297 640.4375 201 C639.29369873 201.51409424 638.14989746 202.02818848 636.97143555 202.55786133 C631.3510312 205.07746513 625.71793294 207.56119168 620.05859375 209.9921875 C618.93332275 210.47816406 617.80805176 210.96414063 616.64868164 211.46484375 C614.56161781 212.3638579 612.4712657 213.25530281 610.37670898 214.13671875 C599.12143187 218.99053895 589.73317243 225.42379635 581 234 C580.27296875 234.70253906 579.5459375 235.40507812 578.796875 236.12890625 C571.73421537 243.43291576 566.75026279 252.0551997 561.45800781 260.66064453 C559.35699475 264.03169396 557.15834345 267.33211703 554.9375 270.625 C547.5506381 281.61963746 540.4179759 292.77662848 533.28637695 303.93798828 C526.07147503 315.22959956 518.79671875 326.47933581 511.46484375 337.6953125 C507.04907941 344.4505466 502.66732417 351.22757804 498.28857422 358.00683594 C497.00805215 359.98754495 495.72512498 361.96667404 494.44140625 363.9453125 C490.37754972 370.21210681 486.32404312 376.48468593 482.3125 382.78515625 C473.05598123 397.31673551 463.6147686 411.70344195 454 426 C450.33911561 424.7797052 450.06970445 423.92699472 448.125 420.6875 C447.50753906 419.68203125 446.89007813 418.6765625 446.25390625 417.640625 C445.90086426 417.06505859 445.54782227 416.48949219 445.18408203 415.89648438 C443.39549542 413.03179555 441.53234278 410.21725176 439.67700195 407.39550781 C433.22058671 397.56590117 427.01402574 387.59542359 420.87329102 377.56616211 C416.96209318 371.1802359 413.01689823 364.81993824 409 358.5 C404.32865221 351.14494215 399.74582472 343.73809649 395.1875 336.3125 C388.13816922 324.82998119 381.0178445 313.39373923 373.86328125 301.9765625 C371.97846246 298.96559411 370.0979539 295.95197553 368.21875 292.9375 C360.36909132 280.34850112 352.48402378 267.78314141 344.47167969 255.296875 C343.19608583 253.30603443 341.92931614 251.30991374 340.6640625 249.3125 C336.34452722 242.61978131 331.58506958 236.68427153 326 231 C325.38769531 230.37480469 324.77539062 229.74960937 324.14453125 229.10546875 C314.67692026 220.16271465 301.9783175 214.84517659 290.125 209.875 C288.82346457 209.32115601 287.52236912 208.76627711 286.22167969 208.21044922 C283.51061866 207.05221931 280.79820833 205.89723846 278.08496094 204.74414062 C271.45244769 201.91905703 264.85237162 199.01962781 258.25 196.125 C256.91555297 195.54079433 255.58108017 194.95664752 254.24658203 194.37255859 C243.77207609 189.78605009 233.31063607 185.17006977 222.85055542 180.55078125 C212.67839542 176.05902435 202.50039846 171.58095202 192.3125 167.125 C191.66665955 166.84252411 191.02081909 166.56004822 190.35540771 166.26901245 C182.4131251 162.79612549 174.46728165 159.3314476 166.51953125 155.87109375 C163.22132598 154.43496054 159.9231549 152.99874887 156.625 151.5625 C155.80892273 151.20717194 154.99284546 150.85184387 154.15203857 150.48574829 C140.86161927 144.6977623 127.59061796 138.86680728 114.33642578 132.99633789 C113.0354976 132.4206999 111.73455396 131.84509686 110.43359375 131.26953125 C109.81150024 130.99377258 109.18940674 130.71801392 108.54846191 130.43389893 C105.42669009 129.05427057 102.29741065 127.69764537 99.14990234 126.37768555 C98.52398697 126.11416794 97.89807159 125.85065033 97.25318909 125.57914734 C95.54733084 124.86349336 93.83882541 124.15415844 92.13012695 123.4453125 C82.55055773 119.0220187 74.48163234 112.34515148 67 105 C66.27425781 104.29875 65.54851562 103.5975 64.80078125 102.875 C57.1114823 94.92340899 51.72326704 85.39024136 46 76 C44.73548175 73.94332954 43.46981141 71.88736707 42.203125 69.83203125 C40.17906485 66.54691005 38.15599925 63.26120628 36.13671875 59.97314453 C31.60107427 52.58766081 27.03443513 45.22248099 22.4375 37.875 C21.83373535 36.90908936 21.2299707 35.94317871 20.60791016 34.94799805 C17.68394206 30.27408525 14.75276347 25.60491839 11.80705261 20.94467163 C10.74177017 19.25844706 9.67860869 17.57088315 8.61547852 15.88330078 C7.27076479 13.74909345 5.92242647 11.61716458 4.57006836 9.48779297 C3.97073486 8.53533691 3.37140137 7.58288086 2.75390625 6.6015625 C2.22095947 5.75932129 1.6880127 4.91708008 1.13891602 4.04931641 C0 2 0 2 0 0 Z " fill="#FEFEFE" transform="translate(59,167)"/>
<path d="M0 0 C2.02252622 -0.00592079 4.04504894 -0.01317246 6.06756592 -0.02168274 C10.28351259 -0.03349906 14.4989291 -0.02695751 18.71484375 -0.00756836 C24.1005775 0.01538134 29.4847401 -0.01156154 34.87031937 -0.05263042 C39.03813266 -0.07826677 43.20557234 -0.07561382 47.37343597 -0.06473732 C49.35884789 -0.06325742 51.34428939 -0.07086151 53.32962799 -0.0879879 C72.00134465 -0.22302398 72.00134465 -0.22302398 78.35198975 5.0900116 C78.87005188 5.62104996 79.38811401 6.15208832 79.921875 6.69921875 C80.51002991 7.27460892 81.09818481 7.84999908 81.7041626 8.44282532 C89.69396551 16.63459614 90.90415917 26.79948981 91.78125 37.671875 C92.75066254 48.91889015 94.3456071 60.00108716 96.171875 71.13671875 C96.47935744 73.04693878 96.78672887 74.95717667 97.09399414 76.86743164 C99.19079658 89.78655908 101.52199802 102.64947411 104.14355469 115.47241211 C104.37848633 116.62878174 104.61341797 117.78515137 104.85546875 118.9765625 C105.06228271 119.96906006 105.26909668 120.96155762 105.48217773 121.98413086 C105.91526943 124.65842998 106.17912824 127.00021553 105.921875 129.69921875 C103.99289727 131.60648772 102.23003358 133.0725242 100.046875 134.63671875 C98.7704717 135.59326764 97.49444963 136.55032536 96.21875 137.5078125 C95.52974609 138.01683105 94.84074219 138.52584961 94.13085938 139.05029297 C90.13474465 142.03324598 86.22367701 145.12598244 82.296875 148.19921875 C80.78457555 149.37722876 79.27159537 150.5543656 77.7578125 151.73046875 C77.11376465 152.23126953 76.4697168 152.73207031 75.80615234 153.24804688 C73.85728846 154.74895992 71.89280806 156.22744294 69.921875 157.69921875 C66.47408414 156.19915484 64.09826967 154.19512613 61.359375 151.63671875 C57.74428559 148.31488881 54.06240365 145.14824176 50.234375 142.07421875 C46.44992534 139.0126415 42.95699486 135.85358374 39.57421875 132.359375 C37.25819242 130.03239819 34.77489588 127.92370951 32.2890625 125.78125 C29.28464951 123.13875475 26.35453428 120.42081702 23.421875 117.69921875 C17.6214923 112.32612023 11.72789274 107.0907998 5.7109375 101.9609375 C5.12594482 101.46142578 4.54095215 100.96191406 3.93823242 100.44726562 C2.71850565 99.40648422 1.49731065 98.36742104 0.2746582 97.33007812 C-2.57623523 94.89898323 -5.37948347 92.44772289 -8.07421875 89.84375 C-18.54296046 79.7907881 -29.08912942 77.64010798 -43.078125 75.69921875 C-44.21918701 75.54042236 -44.21918701 75.54042236 -45.38330078 75.37841797 C-55.89623719 73.98449847 -66.3510495 73.50468828 -76.953125 73.44921875 C-78.06486084 73.43995361 -79.17659668 73.43068848 -80.32202148 73.42114258 C-85.61707573 73.44183748 -90.1407023 73.53156976 -95.078125 75.69921875 C-97.92384617 64.90072324 -99.39131476 51.93682829 -94.078125 41.69921875 C-89.00790895 33.8634303 -79.9624173 29.11045806 -71.078125 26.69921875 C-67.45559817 26.31699225 -63.87364659 26.34785043 -60.234375 26.40625 C-58.71982727 26.41261726 -58.71982727 26.41261726 -57.17468262 26.41911316 C-53.97554943 26.43579661 -50.77706517 26.47342972 -47.578125 26.51171875 C-45.39844665 26.52677893 -43.21875835 26.540465 -41.0390625 26.55273438 C-35.71853164 26.58566612 -30.3983747 26.63576139 -25.078125 26.69921875 C-24.68633057 27.72221069 -24.68633057 27.72221069 -24.28662109 28.76586914 C-23.76189209 30.11152954 -23.76189209 30.11152954 -23.2265625 31.484375 C-22.88286621 32.37261963 -22.53916992 33.26086426 -22.18505859 34.17602539 C-20.15464141 38.80424805 -17.54283119 41.70055544 -13.328125 44.57421875 C-7.94991679 46.43590621 -3.28817912 46.43590346 2.109375 44.63671875 C6.70473638 41.47102536 10.03980957 37.79379105 12.21484375 32.62890625 C14.38687926 28.90115653 15.99300224 28.43529974 20.046875 27.13671875 C26.03868434 25.17537109 30.11547067 22.92499893 35.921875 19.69921875 C9.191875 19.36921875 -17.538125 19.03921875 -45.078125 18.69921875 C-33.41546 1.20522125 -19.75257905 -0.08613244 0 0 Z " fill="#FDFEFE" transform="translate(495.078125,202.30078125)"/>
<path d="M0 0 C6.27507113 1.9896738 12.33547654 4.29988009 18.38671875 6.88671875 C19.27053726 7.26144821 20.15435577 7.63617767 21.06495667 8.02226257 C22.95856103 8.82545828 24.85156674 9.63006659 26.74401855 10.43597412 C29.72427618 11.7031367 32.70786279 12.96215078 35.69238281 14.21923828 C44.63025388 17.98905122 53.55509577 21.77965013 62.41682434 25.72572327 C65.87255471 27.26258909 69.33699486 28.77919425 72.80239868 30.2940979 C74.42249463 31.00955965 76.03801026 31.73549251 77.64852905 32.47225952 C79.88523158 33.49485837 82.1349867 34.48097535 84.390625 35.4609375 C85.35350182 35.91867805 85.35350182 35.91867805 86.33583069 36.38566589 C91.09357655 38.39155943 93.95922706 37.86595434 98.54129028 36.0592041 C99.35266449 35.70966675 100.1640387 35.36012939 101 35 C102.32594681 34.46119202 102.32594681 34.46119202 103.67868042 33.91149902 C106.70148506 32.66990633 109.70476174 31.38808223 112.70703125 30.09765625 C113.81868149 29.6231604 114.93033173 29.14866455 116.07566833 28.65979004 C119.65601661 27.13062202 123.2342344 25.59653423 126.8125 24.0625 C129.26189497 23.0158452 131.7114395 21.96954033 134.16113281 20.92358398 C144.35284617 16.56979652 154.53936976 12.20411258 164.71484375 7.8125 C165.72832634 7.37568153 165.72832634 7.37568153 166.76228333 6.93003845 C169.71321483 5.65816117 172.66252478 4.38285066 175.60864258 3.09985352 C176.58857178 2.67631592 177.56850098 2.25277832 178.578125 1.81640625 C179.39700195 1.46006104 180.21587891 1.10371582 181.05957031 0.73657227 C183 0 183 0 185 0 C186.40517774 1.83194522 187.71915298 3.73403817 188.9921875 5.66015625 C189.57300583 6.5341935 189.57300583 6.5341935 190.16555786 7.42588806 C190.98746868 8.66549346 191.80604783 9.90731322 192.62158203 11.15112305 C193.85663589 13.03449598 195.10109925 14.91133553 196.34765625 16.78710938 C200.08303669 22.43313809 203.68546895 28.09666246 207 34 C206.42894531 34.51046875 205.85789062 35.0209375 205.26953125 35.546875 C194.66837655 45.05252087 184.25228424 54.75158243 173.87475586 64.50024414 C168.96913985 69.1039398 164.02227873 73.65851509 159.0546875 78.1953125 C155.53459209 81.41839261 152.04869821 84.67784494 148.5625 87.9375 C142.26090738 93.82918086 135.93313668 99.69148128 129.58837891 105.53662109 C127.45083769 107.50594511 125.31407352 109.47610843 123.17822266 111.44726562 C122.10713267 112.4351673 121.03520143 113.4221577 119.96240234 114.40820312 C117.03236187 117.10522254 114.12712741 119.82484722 111.24609375 122.57421875 C110.30817993 123.46282593 110.30817993 123.46282593 109.35131836 124.36938477 C108.14732201 125.51114103 106.9485985 126.65849233 105.75610352 127.81225586 C100.8400969 132.45679552 97.06591491 134.14897304 90.16015625 134.4609375 C83.83429668 133.11111575 78.93427048 127.31302794 74.4375 123 C73.0108285 121.64670112 71.58373995 120.29384178 70.15625 118.94140625 C69.45242188 118.27254395 68.74859375 117.60368164 68.0234375 116.91455078 C65.18542502 114.22925954 62.31479108 111.5805616 59.4375 108.9375 C54.75120559 104.62497254 50.08909075 100.28742964 45.4375 95.9375 C39.97395315 90.83007486 34.48087315 85.75731299 28.9609375 80.7109375 C25.79744272 77.81793526 22.64824074 74.90958228 19.5 72 C14.85168771 67.70489874 10.19242178 63.42207446 5.52392578 59.14892578 C1.79698078 55.73572557 -1.9151902 52.30680528 -5.625 48.875 C-11.03994615 43.86761302 -16.50123137 38.91537783 -22 34 C-15.54978703 22.10349825 -7.69086135 11.11281258 0 0 Z " fill="#FDFEFE" transform="translate(420,586)"/>
<path d="M0 0 C7.2953136 2.28693216 14.19661996 5.16539866 21.1875 8.25 C23.87099696 9.4250892 26.55640023 10.59578119 29.2421875 11.765625 C30.35624718 12.25113831 30.35624718 12.25113831 31.49281311 12.74645996 C41.41748657 17.06327776 51.38116256 21.28896285 61.3409729 25.52389526 C67.21362059 28.02096437 73.08534822 30.52019481 78.95703125 33.01953125 C80.13329575 33.52021622 81.30956024 34.02090118 82.52146912 34.53675842 C115.94296497 48.76613388 149.32316611 63.09064544 182.60498047 77.64404297 C187.06797849 79.5949114 191.53575982 81.53456008 196.00474548 83.47166443 C199.34883917 84.92386332 202.68893532 86.38507419 206.02792358 87.84896851 C207.56608486 88.52138032 209.10577242 89.19031387 210.64712524 89.8553772 C218.3525628 93.18302512 225.61825399 96.41418649 232 102 C232.84046875 102.68320312 233.6809375 103.36640625 234.546875 104.0703125 C242.33425441 111.33301032 247.19246728 120.08196594 252.42919922 129.25732422 C255.03235025 133.8025214 257.70734513 138.30497164 260.375 142.8125 C260.90287109 143.7096875 261.43074219 144.606875 261.97460938 145.53125 C264.91812085 150.52565576 267.90197779 155.49211164 270.93359375 160.43359375 C271.58086426 161.48893311 272.22813477 162.54427246 272.89501953 163.6315918 C274.15365958 165.67852448 275.41623127 167.72304588 276.68310547 169.76489258 C277.24787598 170.68294678 277.81264648 171.60100098 278.39453125 172.546875 C278.89831299 173.35995117 279.40209473 174.17302734 279.92114258 175.01074219 C281 177 281 177 281 179 C275.91406993 178.28927481 271.41796611 176.25056861 266.71337891 174.29199219 C265.78240261 173.90901222 264.85142632 173.52603226 263.89223862 173.13144684 C261.86396405 172.29692109 259.83645239 171.46053932 257.80961227 170.62253571 C252.26214924 168.3301605 246.70780288 166.05460019 241.15332031 163.77929688 C239.99114927 163.30306004 238.82897823 162.8268232 237.63158989 162.33615494 C225.10656283 157.21168658 212.5377761 152.19880345 199.9609375 147.203125 C198.83200325 146.75441544 197.703069 146.30570587 196.53992462 145.84339905 C188.48616922 142.64252439 180.43078849 139.4457538 172.375 136.25 C120.24405867 115.56854758 120.24405867 115.56854758 99.41576004 107.06755829 C97.78255543 106.40121688 96.14876831 105.73630091 94.51432419 105.07300568 C62.47520288 92.05741514 47.02621604 75.43473755 29.05078125 46.4921875 C24.9617251 39.91903223 20.80317012 33.39178273 16.625 26.875 C15.95525146 25.82989258 15.28550293 24.78478516 14.59545898 23.70800781 C11.73602951 19.25044217 8.87112853 14.79655326 5.9921875 10.3515625 C5.56212402 9.68656738 5.13206055 9.02157227 4.68896484 8.33642578 C3.59703233 6.64987211 2.50180107 4.96545537 1.40625 3.28125 C0 1 0 1 0 0 Z " fill="#FDFDFE" transform="translate(139,310)"/>
<path d="M0 0 C0.66 0.33 1.32 0.66 2 1 C-3.82209346 10.00732695 -9.65268008 19.0090254 -15.5 28 C-17.14450742 30.52969489 -18.78886428 33.05948753 -20.43310547 35.58935547 C-21.439713 37.13800656 -22.44653104 38.68652085 -23.45361328 40.23486328 C-24.82448619 42.34327062 -26.19370198 44.45274517 -27.5625 46.5625 C-28.0044873 47.2419165 -28.44647461 47.92133301 -28.90185547 48.62133789 C-31.32698458 52.36297825 -33.70407973 56.12864936 -36.03515625 59.9296875 C-54.9391102 90.67139482 -80.32044397 100.31885993 -112.58984375 112.91796875 C-122.96728123 116.97003113 -133.30149122 121.12520675 -143.625 125.3125 C-144.4936972 125.66466583 -145.36239441 126.01683167 -146.25741577 126.37966919 C-164.38651642 133.73165402 -182.49253945 141.14015849 -200.5945282 148.55859375 C-207.33247316 151.31909023 -214.07390127 154.07097551 -220.81640625 156.8203125 C-223.74836962 158.01671319 -226.68026124 159.2132895 -229.61212158 160.40994263 C-231.45117787 161.16014935 -233.29048006 161.90975366 -235.13006592 162.65866089 C-237.71111302 163.70952653 -240.29136205 164.76231583 -242.87109375 165.81640625 C-243.69444214 166.15258469 -244.51779053 166.48876312 -245.36608887 166.83512878 C-249.87904853 168.68740493 -254.36974739 170.58336178 -258.84423828 172.52685547 C-259.80604507 172.94410385 -260.76785187 173.36135223 -261.75880432 173.79124451 C-263.61353203 174.59883419 -265.46612855 175.41134102 -267.31626892 176.22938538 C-268.14784012 176.59188889 -268.97941132 176.9543924 -269.83618164 177.32788086 C-270.56938126 177.6512291 -271.30258087 177.97457733 -272.05799866 178.307724 C-274 179 -274 179 -277 179 C-275.66862298 175.49839245 -274.13031659 172.26194317 -272.3046875 168.9921875 C-271.76142822 168.01838135 -271.21816895 167.0445752 -270.65844727 166.04125977 C-269.77564087 164.47396118 -269.77564087 164.47396118 -268.875 162.875 C-268.26261475 161.78566162 -267.65022949 160.69632324 -267.01928711 159.57397461 C-262.28240278 151.18846557 -257.45429487 142.85849413 -252.5625 134.5625 C-251.9132959 133.45696777 -251.2640918 132.35143555 -250.59521484 131.21240234 C-235.59545803 105.93325332 -219.8979642 95.4950023 -193.38671875 84.18359375 C-184.55844977 80.40293714 -175.79401569 76.47901207 -167.0223999 72.56915283 C-149.08858208 64.57650195 -131.1314576 56.64080518 -113.13085938 48.79980469 C-108.56023883 46.80883773 -103.99110328 44.81447205 -99.421875 42.8203125 C-90.35876859 38.86547114 -81.29327773 34.91612173 -72.22662354 30.96942139 C-70.14880361 30.06478572 -68.0711913 29.15967523 -65.99365234 28.25439453 C-58.73577174 25.09255658 -51.47226711 21.9439896 -44.20166016 18.81152344 C-41.08543104 17.46886016 -37.97092922 16.12224902 -34.85693359 14.77441406 C-30.24042933 12.77719589 -25.62012605 10.78897885 -20.99752808 8.8059082 C-19.17289654 8.02166786 -17.34941745 7.2347405 -15.52713013 6.44506836 C-12.98472278 5.34402558 -10.43828212 4.2528917 -7.890625 3.1640625 C-6.73665474 2.66049728 -6.73665474 2.66049728 -5.55937195 2.14675903 C-3.73053513 1.37120234 -1.86757915 0.67696414 0 0 Z " fill="#FDFDFE" transform="translate(884,310)"/>
<path d="M0 0 C4.27114731 0.68691453 8.12000584 2.1049232 12.11328125 3.7109375 C12.81805099 3.99037704 13.52282074 4.26981659 14.24894714 4.557724 C16.60502816 5.49293396 18.95870527 6.43405222 21.3125 7.375 C23.00112657 8.04625874 24.68993321 8.71706467 26.37890625 9.38745117 C30.01334575 10.83064712 33.64688765 12.27607145 37.27978516 13.72314453 C47.01454289 17.59965557 56.75754794 21.45537762 66.5 25.3125 C68.0110733 25.91091705 68.0110733 25.91091705 69.55267334 26.52142334 C99.28082437 38.29301272 129.05974973 49.93275166 158.87658691 61.47775269 C166.94998848 64.60470887 175.02110468 67.73755394 183.09185791 70.87133789 C185.97798433 71.99145562 188.86469065 73.11006858 191.75146484 74.22851562 C196.23693042 75.96728976 200.71932487 77.71376355 205.19946289 79.46621704 C206.83649756 80.10528463 208.47449602 80.74188974 210.11352539 81.37582397 C212.35311696 82.24252443 214.58902049 83.11813678 216.82421875 83.99609375 C217.46872482 84.24317078 218.1132309 84.4902478 218.77726746 84.74481201 C229.89254613 89.15020078 234.79115246 96.39057713 240.5625 106.25 C247.83880125 118.44409153 255.68739627 130.24952946 263.5625 142.0625 C264.18649689 143.00121948 264.81049377 143.93993896 265.45339966 144.90710449 C267.25764713 147.61932431 269.06721298 150.32790575 270.87890625 153.03515625 C271.69234497 154.25740654 271.69234497 154.25740654 272.5222168 155.50434875 C275.47001086 159.89018877 278.53559004 164.00831906 282 168 C281.67 168.66 281.34 169.32 281 170 C280.28610107 169.7004541 279.57220215 169.4009082 278.83666992 169.09228516 C254.89671167 159.04815271 230.9517322 149.01602473 207 139 C205.78966095 138.49376099 205.78966095 138.49376099 204.55487061 137.97729492 C174.80337221 125.53409447 144.98767121 113.2504209 115.09912109 101.13995361 C112.77258084 100.19665543 110.44676043 99.25160196 108.12109375 98.30615234 C101.15408905 95.47624807 94.18038891 92.66921184 87.17578125 89.93359375 C54.25631847 77.0019724 36.93803348 57.53740106 17.88989258 28.36474609 C15.91568824 25.34159912 13.93224653 22.32467345 11.94726562 19.30859375 C10.68176079 17.38055668 9.41676752 15.45218371 8.15234375 13.5234375 C7.56283432 12.62555511 6.97332489 11.72767273 6.36595154 10.80258179 C5.8210054 9.96715851 5.27605927 9.13173523 4.71459961 8.27099609 C4.2370372 7.54045013 3.75947479 6.80990417 3.2674408 6.05722046 C2.05192612 4.08428282 1.00076281 2.08877076 0 0 Z " fill="#FDFDFD" transform="translate(207,428)"/>
<path d="M0 0 C0 3.4159539 -0.55277233 4.18460564 -2.4296875 6.9375 C-2.96907959 7.73704102 -3.50847168 8.53658203 -4.06420898 9.36035156 C-4.66177002 10.23143555 -5.25933105 11.10251953 -5.875 12 C-7.15544687 13.89028711 -8.43536796 15.78093046 -9.71484375 17.671875 C-10.40433105 18.68701172 -11.09381836 19.70214844 -11.80419922 20.74804688 C-14.12034264 24.17822592 -16.40967145 27.62502333 -18.69140625 31.078125 C-19.48774045 32.28128476 -20.28412707 33.48440983 -21.08056641 34.6875 C-22.24734645 36.45018093 -23.41334788 38.21334273 -24.57635498 39.97851562 C-42.05600091 66.48894566 -61.21085096 81.24855672 -90.56115723 92.83782959 C-93.28323657 93.91280738 -96.00093295 94.99827956 -98.71777344 96.08642578 C-101.58890498 97.23630337 -104.4602396 98.38563326 -107.33279419 99.5319519 C-117.49568399 103.58820378 -127.62484477 107.72563114 -137.75 111.875 C-138.65552612 112.2458371 -139.56105225 112.61667419 -140.49401855 112.99874878 C-146.99748598 115.66224687 -153.49920277 118.329992 -160 121 C-160.93648376 121.3845636 -161.87296753 121.7691272 -162.83782959 122.16534424 C-194.48956796 135.16604863 -226.06127428 148.35314178 -257.53250122 161.78536987 C-259.44283461 162.60065237 -261.35366916 163.41474841 -263.26464844 164.22851562 C-265.46853444 165.1679181 -267.67111755 166.11038617 -269.87207031 167.05664062 C-271.27150879 167.6531543 -271.27150879 167.6531543 -272.69921875 168.26171875 C-273.49158936 168.60162842 -274.28395996 168.94153809 -275.1003418 169.29174805 C-277 170 -277 170 -279 170 C-277.38724648 165.30670605 -274.84701445 161.47796665 -272.125 157.375 C-271.12157788 155.8416808 -270.11900289 154.30780696 -269.1171875 152.7734375 C-268.59995117 151.98291992 -268.08271484 151.19240234 -267.54980469 150.37792969 C-259.47083024 137.98202372 -251.75329853 125.37972763 -244.25097656 112.62695312 C-236.37330435 99.34270111 -229.86204546 92.30551417 -215.52124023 86.35668945 C-214.6902629 86.00958325 -213.85928556 85.66247705 -213.0031271 85.30485249 C-203.15574845 81.20728748 -193.25318457 77.24730074 -183.34765625 73.29296875 C-181.31191525 72.47891196 -179.27622612 71.66472543 -177.24058533 70.85041809 C-172.99960294 69.1543353 -168.75816633 67.45939547 -164.51635742 65.76538086 C-159.16738145 63.62916924 -153.8193078 61.49070996 -148.47153664 59.3514843 C-129.46918699 51.75067026 -110.4645698 44.15871527 -91.40365601 36.70581055 C-82.64524144 33.27314881 -73.9319092 29.73504638 -65.22549438 26.17285156 C-52.11754323 20.81183345 -38.96460872 15.56402386 -25.8125 10.3125 C-23.28573342 9.3029192 -20.75907662 8.29306378 -18.23242188 7.28320312 C-12.1553241 4.85452636 -6.07783088 2.42684153 0 0 Z " fill="#FDFDFE" transform="translate(817,427)"/>
<path d="M0 0 C8.91 0 17.82 0 27 0 C32.35565145 11.42066071 37.61285283 22.88254206 42.8125 34.375 C43.21885681 35.27252991 43.62521362 36.17005981 44.04388428 37.0947876 C51.06521514 52.61266214 57.95988013 68.18397429 64.77270508 83.79443359 C65.4656367 85.381194 66.15858886 86.96794544 66.8515625 88.5546875 C67.18465927 89.31856781 67.51775604 90.08244812 67.86094666 90.86947632 C69.71813273 95.11609236 71.60476234 99.34771709 73.52246094 103.56738281 C73.939664 104.48641388 74.35686707 105.40544495 74.78671265 106.35232544 C75.59646448 108.13194118 76.40951233 109.91006175 77.22622681 111.68649292 C77.77045792 112.88219406 77.77045792 112.88219406 78.32568359 114.10205078 C78.81130264 115.16058762 78.81130264 115.16058762 79.30673218 116.24050903 C80 118 80 118 80 120 C70.1 120 60.2 120 50 120 C48.35 116.24625 46.7 112.4925 45 108.625 C44.47792969 107.44244629 43.95585938 106.25989258 43.41796875 105.04150391 C42.80888672 103.64810791 42.80888672 103.64810791 42.1875 102.2265625 C41.76855469 101.27346191 41.34960938 100.32036133 40.91796875 99.33837891 C40 97 40 97 40 95 C22.18 95 4.36 95 -14 95 C-14.33 96.65 -14.66 98.3 -15 100 C-15.64134879 101.64044658 -16.33288257 103.26192674 -17.06640625 104.86328125 C-17.42935791 105.66290283 -17.79230957 106.46252441 -18.16625977 107.28637695 C-18.62701904 108.28499756 -19.08777832 109.28361816 -19.5625 110.3125 C-21.026875 113.509375 -22.49125 116.70625 -24 120 C-33.57 120 -43.14 120 -53 120 C-51.50862271 115.52586814 -49.89323537 111.30007639 -47.97265625 107.015625 C-47.67229965 106.33989441 -47.37194305 105.66416382 -47.06248474 104.96795654 C-46.06539928 102.72732858 -45.06405578 100.48863293 -44.0625 98.25 C-43.35014757 96.65239406 -42.63791057 95.05473665 -41.92578125 93.45703125 C-36.10132402 80.40445877 -30.20791025 67.38314329 -24.30554199 54.36566162 C-16.10824959 36.28591476 -8.03455781 18.15255957 0 0 Z " fill="#FDFDFD" transform="translate(600,771)"/>
<path d="M0 0 C60.72 0 121.44 0 184 0 C184 59.4 184 118.8 184 180 C183.67 180 183.34 180 183 180 C182.93006836 179.26587891 182.86013672 178.53175781 182.78808594 177.77539062 C181.43304581 163.85899783 179.97460072 150.43929739 176 137 C175.63489905 135.6310371 175.2730253 134.26121022 174.9140625 132.890625 C168.66439344 109.57713217 156.95958982 86.92334249 140.6953125 69.01171875 C139 67 139 67 139 65 C138.34 65 137.68 65 137 65 C135.66015625 63.63671875 135.66015625 63.63671875 134.0625 61.6875 C103.68620479 26.17541879 57.15886462 5.59663043 11.0625 1.8125 C7.37595288 1.52706873 3.68875527 1.25526608 0 1 C0 0.67 0 0.34 0 0 Z " fill="#000000" transform="translate(840,0)"/>
<path d="M0 0 C0.33 0 0.66 0 1 0 C1.06469482 0.76852295 1.12938965 1.5370459 1.19604492 2.32885742 C5.84806955 55.92097977 26.14926973 103.46752807 67.05859375 139.546875 C83.80339892 153.51199804 102.51030094 164.51642941 123 172 C123.69593262 172.26506348 124.39186523 172.53012695 125.10888672 172.80322266 C140.26631769 178.54829416 155.95369718 181.09332166 172 183 C172 183.33 172 183.66 172 184 C115.24 184 58.48 184 0 184 C0 123.28 0 62.56 0 0 Z " fill="#000000" transform="translate(0,840)"/>
<path d="M0 0 C0.33 0 0.66 0 1 0 C1 60.72 1 121.44 1 184 C-55.1 184 -111.2 184 -169 184 C-169 183.67 -169 183.34 -169 183 C-168.36199463 182.90501221 -167.72398926 182.81002441 -167.06665039 182.7121582 C-153.70584508 180.69070207 -140.8022922 178.35581829 -128 174 C-127.25476074 173.75411133 -126.50952148 173.50822266 -125.74169922 173.25488281 C-77.81231567 157.30843377 -41.63363632 122.34239798 -18.8671875 77.87109375 C-10.97260932 62.02808119 -6.41354657 45.30939985 -3 28 C-2.67708984 26.40091797 -2.67708984 26.40091797 -2.34765625 24.76953125 C-0.83074624 16.56493042 -0.40118095 8.31922591 0 0 Z " fill="#000000" transform="translate(1023,840)"/>
<path d="M0 0 C58.41 0 116.82 0 177 0 C177 0.33 177 0.66 177 1 C176.05125 1.08636719 175.1025 1.17273438 174.125 1.26171875 C124.64353137 6.1956094 77.25258244 27.43707722 44.75 65.9375 C18.14048934 99.06362551 5.07645719 135.93584915 1 178 C0.67 178 0.34 178 0 178 C0 119.26 0 60.52 0 0 Z " fill="#000000" transform="translate(0,0)"/>
<path d="M0 0 C29.04 0 58.08 0 88 0 C88 7.59 88 15.18 88 23 C68.53 23 49.06 23 29 23 C29 30.92 29 38.84 29 47 C46.16 47 63.32 47 81 47 C81 54.26 81 61.52 81 69 C63.84 69 46.68 69 29 69 C29 77.91 29 86.82 29 96 C48.8 96 68.6 96 89 96 C89 103.92 89 111.84 89 120 C59.63 120 30.26 120 0 120 C0 80.4 0 40.8 0 0 Z " fill="#FDFDFD" transform="translate(708,771)"/>
<path d="M0 0 C5.18348942 4.34451018 10.06173585 8.89328742 14.86303711 13.65429688 C15.61508423 14.39656021 16.36713135 15.13882355 17.14196777 15.90357971 C19.60690427 18.33881647 22.06775488 20.7781127 24.52734375 23.21875 C25.37043154 24.05526596 26.21351933 24.89178192 27.08215523 25.75364685 C31.53358557 30.17261443 35.98102715 34.5955593 40.42602539 39.02099609 C44.10481639 42.68189875 47.79195427 46.3340758 51.48657227 49.97900391 C55.95583177 54.38824201 60.41034734 58.81187011 64.85455513 63.24635315 C66.54917814 64.9324014 68.24894231 66.61329849 69.95387077 68.28892517 C72.33104642 70.62738657 74.68879562 72.98387516 77.04272461 75.34570312 C77.75173416 76.03471207 78.46074371 76.72372101 79.1912384 77.43360901 C83.88183389 82.19549408 83.88183389 82.19549408 84.49269104 86.35437012 C82.19444394 98.69539262 65.11603879 108.65617015 56 116 C53.93462127 117.68400807 51.87372653 119.37340272 49.8125 121.0625 C48.20833333 122.375 46.60416667 123.6875 45 125 C40.663068 123.60571103 38.3026632 121.59877071 35.1875 118.3125 C31.63864975 114.5899703 27.95307724 111.17045932 24.06811523 107.80981445 C20.78136452 104.93356808 17.61243365 101.93598161 14.4375 98.9375 C13.03398966 97.61704346 11.63034052 96.29673445 10.2265625 94.9765625 C9.52305664 94.31430664 8.81955078 93.65205078 8.09472656 92.96972656 C4.84081926 89.90999182 1.57772092 86.86015307 -1.6875 83.8125 C-2.60366089 82.95712646 -2.60366089 82.95712646 -3.53833008 82.08447266 C-8.30030165 77.64284152 -13.08158595 73.22238439 -17.87768555 68.81762695 C-19.25599285 67.54963761 -20.62832694 66.27516313 -22 65 C-22.63421875 64.53980469 -23.2684375 64.07960938 -23.921875 63.60546875 C-25.39557119 61.41094291 -25.11684311 59.77192415 -24.62353516 57.24462891 C-23.19159415 52.08986554 -21.17010192 47.15013445 -19.1875 42.1875 C-18.70555176 40.97022217 -18.22360352 39.75294434 -17.72705078 38.4987793 C-3.91004828 3.91004828 -3.91004828 3.91004828 0 0 Z " fill="#FDFDFE" transform="translate(465,296)"/>
<path d="M0 0 C10.23 0 20.46 0 31 0 C33.10375 4.640625 35.2075 9.28125 37.375 14.0625 C44.1895722 29.07481154 51.08167787 44.05059971 58.00732422 59.01196289 C58.376978 59.81106583 58.74663177 60.61016876 59.12748718 61.43348694 C59.81291024 62.91500668 60.4989006 64.39626418 61.18562317 65.87718201 C62.12880195 67.9158448 63.06560578 69.95729704 64 72 C64.37138092 72.80630859 64.74276184 73.61261719 65.12539673 74.44335938 C65.49240692 75.25095703 65.85941711 76.05855469 66.23754883 76.890625 C66.57450272 77.62829102 66.9114566 78.36595703 67.25862122 79.12597656 C68 81 68 81 68 83 C68.66 83 69.32 83 70 83 C70.17065475 82.45232468 70.34130951 81.90464935 70.51713562 81.34037781 C72.30757696 75.76417724 74.46328084 70.50160888 76.95703125 65.20703125 C77.33700256 64.3900325 77.71697388 63.57303375 78.10845947 62.73127747 C79.33846972 60.08947783 80.57532166 57.4509493 81.8125 54.8125 C82.66569227 52.9844031 83.51847192 51.15611357 84.37084961 49.32763672 C86.08785594 45.64613533 87.8075487 41.96590707 89.52929688 38.28662109 C91.79537341 33.44188676 94.04830451 28.59115977 96.296875 23.73828125 C97.25194357 21.67991146 98.20733613 19.62169253 99.16293335 17.56356812 C99.75929684 16.27840349 100.35502768 14.99294509 100.95010376 13.70718384 C101.76773054 11.94170091 102.5888493 10.17783641 103.41015625 8.4140625 C103.86527588 7.4338916 104.32039551 6.4537207 104.78930664 5.44384766 C106 3 106 3 108 0 C110.88916016 -0.34057617 110.88916016 -0.34057617 114.5390625 -0.29296875 C116.49199219 -0.2784668 116.49199219 -0.2784668 118.484375 -0.26367188 C119.86458923 -0.23860388 121.24479756 -0.21320902 122.625 -0.1875 C124.01300663 -0.17245517 125.40102867 -0.15876641 126.7890625 -0.14648438 C130.19309509 -0.1110257 133.59635622 -0.06160298 137 0 C133.12317856 9.6726816 128.76791047 19.09953541 124.36123657 28.53903198 C122.23152855 33.10164056 120.10962499 37.66787275 117.98828125 42.234375 C117.34879799 43.61066322 117.34879799 43.61066322 116.69639587 45.01475525 C112.85151898 53.29977845 109.07409885 61.6144243 105.3125 69.9375 C97.72766619 86.71270315 89.87923834 103.3614507 82 120 C73.42 120 64.84 120 56 120 C54.98164063 117.84210938 53.96328125 115.68421875 52.9140625 113.4609375 C43.44850304 93.4064601 33.96577211 73.36018493 24.46836853 53.32077026 C22.0558253 48.22977956 19.64520474 43.13788249 17.2358551 38.04537964 C15.57770557 34.54066403 13.91909354 31.03616738 12.26046753 27.53167725 C11.46965205 25.86043866 10.67905911 24.18909475 9.88870239 22.51763916 C8.79227834 20.19897911 7.69505063 17.88070093 6.59765625 15.5625 C6.27659912 14.88299286 5.95554199 14.20348572 5.62475586 13.50338745 C4.21591578 10.52904975 2.78270037 7.57825726 1.27514648 4.65234375 C0 2 0 2 0 0 Z " fill="#FCFDFD" transform="translate(218,771)"/>
<path d="M0 0 C34.98 0 69.96 0 106 0 C106 7.59 106 15.18 106 23 C93.13 23 80.26 23 67 23 C67 55.01 67 87.02 67 120 C57.76 120 48.52 120 39 120 C39 87.99 39 55.98 39 23 C26.13 23 13.26 23 0 23 C0 15.41 0 7.82 0 0 Z " fill="#FDFDFE" transform="translate(442,771)"/>
<path d="M0 0 C9.24 0 18.48 0 28 0 C28 39.6 28 79.2 28 120 C18.76 120 9.52 120 0 120 C0 80.4 0 40.8 0 0 Z " fill="#FEFEFE" transform="translate(382,771)"/>
<path d="M0 0 C2.74405903 3.31550331 4.35950208 6.76759126 6.06640625 10.70703125 C6.34596664 11.35065109 6.62552704 11.99427094 6.91355896 12.65739441 C7.50184666 14.01535055 8.08749556 15.37445255 8.6706543 16.73461914 C9.5564042 18.7982976 10.4523332 20.85732683 11.34960938 22.91601562 C11.92249171 24.24192121 12.49477674 25.56808506 13.06640625 26.89453125 C13.8389978 28.68661011 13.8389978 28.68661011 14.62719727 30.51489258 C15.97275869 33.93084301 16.99138605 37.46985117 18 41 C6.12 41 -5.76 41 -18 41 C-15.74950811 34.24852433 -15.74950811 34.24852433 -14.41186523 31.21362305 C-14.11493271 30.53659836 -13.81800018 29.85957367 -13.5120697 29.16203308 C-13.19742264 28.45242935 -12.88277557 27.74282562 -12.55859375 27.01171875 C-12.06698509 25.8960125 -12.06698509 25.8960125 -11.56544495 24.75776672 C-10.87673569 23.19657136 -10.18668548 21.63596694 -9.49536133 20.07592773 C-8.43384126 17.67923934 -7.37777881 15.28019835 -6.32226562 12.88085938 C-5.65136446 11.36183656 -4.98015161 9.84295135 -4.30859375 8.32421875 C-3.99192245 7.60449387 -3.67525116 6.88476898 -3.34898376 6.14323425 C-1.11515318 1.11515318 -1.11515318 1.11515318 0 0 Z " fill="#0F2257" transform="translate(613,804)"/>
<path d="M0 0 C0.83640015 0.00202423 1.67280029 0.00404846 2.5345459 0.00613403 C3.84908752 0.00350555 3.84908752 0.00350555 5.19018555 0.00082397 C8.10186717 -0.00359576 11.0134886 -0.00065613 13.9251709 0.00271606 C15.93916841 0.00204306 17.95316585 0.00107306 19.96716309 -0.00018311 C24.19405895 -0.00166024 28.42093373 0.00049499 32.64782715 0.00515747 C38.07897622 0.01085476 43.51007589 0.00757584 48.94122314 0.00158501 C53.10176977 -0.00202018 57.26230459 -0.00088222 61.42285156 0.0017128 C63.42602545 0.00238219 65.42920039 0.00155324 67.43237305 -0.00076675 C70.22687642 -0.00329258 73.02129861 0.00054632 75.8157959 0.00613403 C77.07039612 0.00309769 77.07039612 0.00309769 78.3503418 0 C84.06090848 0.02126614 84.06090848 0.02126614 85.1751709 1.13552856 C85.27463543 2.90412049 85.30597307 4.67664307 85.3079834 6.44802856 C85.30927246 7.52310669 85.31056152 8.59818481 85.31188965 9.70584106 C85.30802246 10.83763794 85.30415527 11.96943481 85.3001709 13.13552856 C85.30403809 14.26732544 85.30790527 15.39912231 85.31188965 16.56521606 C85.31060059 17.64029419 85.30931152 18.71537231 85.3079834 19.82302856 C85.30685547 20.81689575 85.30572754 21.81076294 85.30456543 22.83474731 C85.1751709 25.13552856 85.1751709 25.13552856 84.1751709 26.13552856 C82.3339906 26.22934159 80.48919448 26.2529681 78.64562988 26.24905396 C77.46448105 26.24897842 76.28333221 26.24890289 75.06639099 26.24882507 C73.7809993 26.24366379 72.4956076 26.2385025 71.17126465 26.23318481 C69.20903709 26.23106239 69.20903709 26.23106239 67.20716858 26.22889709 C63.72354231 26.22507266 60.2399575 26.21524303 56.75634766 26.20419312 C53.20390382 26.19397739 49.6514533 26.18939913 46.09899902 26.18435669 C39.12437086 26.17362068 32.14977714 26.15602449 25.1751709 26.13552856 C25.1751709 32.73552856 25.1751709 39.33552856 25.1751709 46.13552856 C42.0051709 46.13552856 58.8351709 46.13552856 76.1751709 46.13552856 C75.6801709 47.12552856 75.6801709 47.12552856 75.1751709 48.13552856 C58.3451709 48.13552856 41.5151709 48.13552856 24.1751709 48.13552856 C24.1751709 40.21552856 24.1751709 32.29552856 24.1751709 24.13552856 C43.6451709 24.13552856 63.1151709 24.13552856 83.1751709 24.13552856 C83.1751709 16.54552856 83.1751709 8.95552856 83.1751709 1.13552856 C54.1351709 1.13552856 25.0951709 1.13552856 -4.8248291 1.13552856 C-4.8248291 40.73552856 -4.8248291 80.33552856 -4.8248291 121.13552856 C24.5451709 121.13552856 53.9151709 121.13552856 84.1751709 121.13552856 C84.1751709 113.21552856 84.1751709 105.29552856 84.1751709 97.13552856 C84.5051709 97.13552856 84.8351709 97.13552856 85.1751709 97.13552856 C85.1751709 105.38552856 85.1751709 113.63552856 85.1751709 122.13552856 C73.32751577 122.15807835 61.47987479 122.17644293 49.6322031 122.18734074 C44.13146228 122.19256987 38.63073685 122.19966807 33.13000488 122.21096802 C27.8262053 122.22179581 22.52242055 122.22780517 17.21861076 122.23040581 C15.19031478 122.23226025 13.16201964 122.23588123 11.13372993 122.24125862 C8.30320576 122.24846762 5.47274372 122.24951957 2.64221191 122.24905396 C1.37122902 122.25444687 1.37122902 122.25444687 0.0745697 122.25994873 C-5.71077694 122.24958073 -5.71077694 122.24958073 -6.8248291 121.13552856 C-6.92287775 119.58164693 -6.95114772 118.02331092 -6.95181274 116.46633911 C-6.95463257 115.45671112 -6.95745239 114.44708313 -6.96035767 113.40686035 C-6.95833344 112.28993805 -6.9563092 111.17301575 -6.95422363 110.02224731 C-6.95597595 108.85327911 -6.95772827 107.68431091 -6.95953369 106.47991943 C-6.96319174 103.26512417 -6.96231886 100.05036979 -6.95915461 96.8355751 C-6.95663052 93.47812053 -6.95896868 90.12066878 -6.96054077 86.76321411 C-6.96236232 81.12396755 -6.95995653 75.48473408 -6.9552002 69.8454895 C-6.9497576 63.31702597 -6.95152027 56.78859366 -6.9570266 50.26013088 C-6.96155814 44.66438498 -6.96220808 39.06864849 -6.95958793 33.47290134 C-6.95802538 30.12666372 -6.95783079 26.78044079 -6.96112442 23.4342041 C-6.96364924 19.70571752 -6.95981274 15.97729184 -6.95422363 12.24880981 C-6.95624786 11.13188751 -6.95827209 10.01496521 -6.96035767 8.86419678 C-6.95753784 7.85456879 -6.95471802 6.8449408 -6.95181274 5.80471802 C-6.95143572 4.92201736 -6.95105869 4.03931671 -6.95067024 3.12986755 C-6.68065542 -1.14934571 -3.56924851 0.01329188 0 0 Z " fill="#01093A" transform="translate(712.8248291015625,769.8644714355469)"/>
<path d="M0 0 C0.66 0 1.32 0 2 0 C2.02886984 3.97915159 2.04675406 7.95827653 2.0625 11.9375 C2.07087891 13.07380859 2.07925781 14.21011719 2.08789062 15.38085938 C2.09111328 16.46044922 2.09433594 17.54003906 2.09765625 18.65234375 C2.10289307 19.65257568 2.10812988 20.65280762 2.11352539 21.68334961 C2 24 2 24 1 25 C-0.84118029 25.09381302 -2.68597641 25.11743954 -4.52954102 25.11352539 C-5.71068985 25.11344986 -6.89183868 25.11337433 -8.10877991 25.11329651 C-9.3941716 25.10813522 -10.67956329 25.10297394 -12.00390625 25.09765625 C-13.31205795 25.0962413 -14.62020966 25.09482635 -15.96800232 25.09336853 C-19.45162859 25.0895441 -22.93521339 25.07971446 -26.41882324 25.06866455 C-29.97126708 25.05844882 -33.52371759 25.05387056 -37.07617188 25.04882812 C-44.05080004 25.03809212 -51.02539376 25.02049593 -58 25 C-58 31.6 -58 38.2 -58 45 C-41.17 45 -24.34 45 -7 45 C-7.495 45.99 -7.495 45.99 -8 47 C-24.83 47 -41.66 47 -59 47 C-59 39.08 -59 31.16 -59 23 C-39.53 23 -20.06 23 0 23 C0 15.41 0 7.82 0 0 Z " fill="#000C45" transform="translate(796,771)"/>
<path d="M0 0 C0.33 0 0.66 0 1 0 C1 7.59 1 15.18 1 23 C13.87 23 26.74 23 40 23 C39.67 44.78 39.34 66.56 39 89 C38.67 89 38.34 89 38 89 C38 67.88 38 46.76 38 25 C25.86826403 25.03960283 25.86826403 25.03960283 13.73657227 25.09008789 C12.22151764 25.09300707 10.70646223 25.09555562 9.19140625 25.09765625 C8.39762573 25.10277222 7.60384521 25.10788818 6.78601074 25.11315918 C4.85697171 25.11346956 2.92803088 25.06235893 1 25 C0 24 0 24 -0.11352539 21.68334961 C-0.10828857 20.68311768 -0.10305176 19.68288574 -0.09765625 18.65234375 C-0.09443359 17.57275391 -0.09121094 16.49316406 -0.08789062 15.38085938 C-0.07951172 14.24455078 -0.07113281 13.10824219 -0.0625 11.9375 C-0.05798828 10.79732422 -0.05347656 9.65714844 -0.04882812 8.48242188 C-0.03699747 5.65489649 -0.0205141 2.8274736 0 0 Z " fill="#02114A" transform="translate(441,771)"/>
<path d="M0 0 C0.66 0 1.32 0 2 0 C2 7.92 2 15.84 2 24 C-0.65274973 25.32637487 -2.5821666 25.07956818 -5.55126953 25.02172852 C-6.71232208 25.00163223 -7.87337463 24.98153595 -9.0696106 24.96083069 C-10.32796722 24.93379562 -11.58632385 24.90676056 -12.8828125 24.87890625 C-14.16735321 24.85529526 -15.45189392 24.83168427 -16.77536011 24.80735779 C-20.19164851 24.74450505 -23.60778441 24.67544189 -27.02392578 24.60510254 C-30.50936941 24.53442976 -33.99492123 24.46960649 -37.48046875 24.40429688 C-44.3204301 24.27526927 -51.16024819 24.13968312 -58 24 C-58 23.67 -58 23.34 -58 23 C-38.86 23 -19.72 23 0 23 C0 15.41 0 7.82 0 0 Z " fill="#051851" transform="translate(796,771)"/>
<path d="M0 0 C0.66 0 1.32 0 2 0 C2 7.92 2 15.84 2 24 C-1.23464083 25.61732041 -4.74708451 24.99875197 -8.2890625 24.87890625 C-9.10748627 24.85529526 -9.92591003 24.83168427 -10.76913452 24.80735779 C-13.3879306 24.73067056 -16.00643471 24.64666817 -18.625 24.5625 C-20.39842312 24.50928437 -22.17186058 24.45654393 -23.9453125 24.40429688 C-28.29706054 24.2750486 -32.64856061 24.13923848 -37 24 C-37 23.67 -37 23.34 -37 23 C-24.79 23 -12.58 23 0 23 C0 15.41 0 7.82 0 0 Z " fill="#02124C" transform="translate(548,771)"/>
<path d="M0 0 C0.66 0.33 1.32 0.66 2 1 C-12.21359223 15.47572816 -12.21359223 15.47572816 -19 20 C-15.58061224 11.80102603 -6.71499444 5.54716932 0 0 Z " fill="#102867" transform="translate(67,43)"/>
<path d="M0 0 C-0.33 0.99 -0.66 1.98 -1 3 C-13.54 2.67 -26.08 2.34 -39 2 C-39 1.67 -39 1.34 -39 1 C-33.76726191 0.85724064 -28.53451442 0.71483282 -23.30175781 0.57275391 C-21.52083069 0.52434855 -19.73990619 0.47584634 -17.95898438 0.42724609 C-15.40235057 0.35749384 -12.84570758 0.28808744 -10.2890625 0.21875 C-9.49005524 0.19687622 -8.69104797 0.17500244 -7.86782837 0.15246582 C-2.22774341 0 -2.22774341 0 0 0 Z " fill="#061B54" transform="translate(550,793)"/>
<path d="M0 0 C1.21386936 3.64160808 0.6674695 4.33165469 -0.9375 7.6875 C-1.31777344 8.49574219 -1.69804687 9.30398438 -2.08984375 10.13671875 C-2.39019531 10.75160156 -2.69054687 11.36648438 -3 12 C-3.66 12 -4.32 12 -5 12 C-5.33 10.35 -5.66 8.7 -6 7 C-5.38125 6.95875 -4.7625 6.9175 -4.125 6.875 C-3.42375 6.58625 -2.7225 6.2975 -2 6 C-0.6954344 3.00384054 -0.6954344 3.00384054 0 0 Z " fill="#0B1647" transform="translate(291,842)"/>
<path d="M0 0 C-1.4096347 0.70180531 -2.82807641 1.38593958 -4.25 2.0625 C-5.03890625 2.44535156 -5.8278125 2.82820312 -6.640625 3.22265625 C-9.25993522 4.08564091 -10.44855176 3.93045933 -13 3 C-12.34 2.67 -11.68 2.34 -11 2 C-10.67 1.34 -10.34 0.68 -10 0 C-6.18015204 -0.77811718 -3.73159669 -1.24386556 0 0 Z " fill="#0C194A" transform="translate(606,512)"/>
<path d="M0 0 C1 3 1 3 -0.4375 6.1875 C-1.2109375 7.5796875 -1.2109375 7.5796875 -2 9 C-2.66 8.67 -3.32 8.34 -4 8 C-3.40138258 5.64828869 -2.73075648 3.3140622 -2 1 C-1.34 0.67 -0.68 0.34 0 0 Z " fill="#0C1748" transform="translate(557,864)"/>
</svg>
